PathFileType	4	(X/Y/Z)	/Users/itak/Documents/Research/Walk-IL/dataset/trc/00131_00007.trc
DataRate	CameraRate	NumFrames	NumMarkers	Units	OrigDataRate	OrigDataStartFrame	OrigNumFrames
100.000000	100.000000	4	53	mm	100.000000	178	712
Frame#	Time	RPSI			LPSI			L3			STRN			T10			C7			CLAV			RBAK			LBAK			LSHO			LUPA			LAEL			LAOL			LWTS			LWPS			LFRA			LIFD			LHPS			LHTS			RSHO			RUPA			RAEL			RAOL			RWTS			RWPS			RFRA			RIFD			RHTS			RHPS			RBHD			LFHD			RFHD			LBHD			LHIP			RHIP			RASI			LASI			LKNE			LTHI			LANK			LTIP			LTOE			LMT1			LMT5			LHEE			RKNE			RTHI			RANK			RTIP			RTOE			RMT1			RMT5			RHEE			
		X1	Y1	Z1	X2	Y2	Z2	X3	Y3	Z3	X4	Y4	Z4	X5	Y5	Z5	X6	Y6	Z6	X7	Y7	Z7	X8	Y8	Z8	X9	Y9	Z9	X10	Y10	Z10	X11	Y11	Z11	X12	Y12	Z12	X13	Y13	Z13	X14	Y14	Z14	X15	Y15	Z15	X16	Y16	Z16	X17	Y17	Z17	X18	Y18	Z18	X19	Y19	Z19	X20	Y20	Z20	X21	Y21	Z21	X22	Y22	Z22	X23	Y23	Z23	X24	Y24	Z24	X25	Y25	Z25	X26	Y26	Z26	X27	Y27	Z27	X28	Y28	Z28	X29	Y29	Z29	X30	Y30	Z30	X31	Y31	Z31	X32	Y32	Z32	X33	Y33	Z33	X34	Y34	Z34	X35	Y35	Z35	X36	Y36	Z36	X37	Y37	Z37	X38	Y38	Z38	X39	Y39	Z39	X40	Y40	Z40	X41	Y41	Z41	X42	Y42	Z42	X43	Y43	Z43	X44	Y44	Z44	X45	Y45	Z45	X46	Y46	Z46	X47	Y47	Z47	X48	Y48	Z48	X49	Y49	Z49	X50	Y50	Z50	X51	Y51	Z51	X52	Y52	Z52	X53	Y53	Z53	

179	1.78	-338.4834594726562	1097.839111328125	872.4799194335938	-444.2941589355469	1110.555419921875	954.132568359375	-383.9707946777344	1142.806518554688	916.7057495117188	-511.5950317382812	1337.151733398438	730.0304565429688	-345.3089294433594	1290.103759765625	917.5875244140625	-368.080078125	1583.214477539062	888.996337890625	-491.6381530761719	1473.735229492188	755.130126953125	-269.3221740722656	1397.770141601562	878.3776245117188	-436.6644592285156	1568.317016601562	964.5139770507812	-547.0296630859375	1557.408081054688	954.1467895507812	-576.3715209960938	1431.321899414062	1029.563598632812	-588.7366943359375	1215.966796875	1063.337524414062	-501.0970458984375	1204.1337890625	1057.377319335938	-641.2633056640625	949.7327880859375	996.3665771484375	-589.3446044921875	930.0489501953125	1066.098999023438	-601.9037475585938	1099.238525390625	1070.049194335938	-628.9230346679688	753.3677978515625	985.307861328125	-610.284912109375	853.4490966796875	1057.536865234375	-657.4835205078125	859.3362426757812	1003.247131347656	-276.2914733886719	1555.020263671875	723.7611694335938	-219.9202575683594	1479.459594726562	693.7886962890625	-213.6770172119141	1181.489501953125	687.6829833984375	-275.2269592285156	1183.926513671875	762.4070434570312	-353.7992858886719	960.550537109375	580.3118896484375	-282.5940246582031	931.1370239257812	611.2494506835938	-226.4797668457031	1109.851318359375	656.6951293945312	-411.2622985839844	774.9664306640625	561.0985107421875	-385.4917602539062	858.7976684570312	545.76123046875	-317.9578857421875	838.5888671875	572.9510498046875	-334.1085205078125	1743.326904296875	808.429443359375	-529.0004272460938	1824.897094726562	744.4415283203125	-422.5665588378906	1813.2236328125	670.4296264648438	-439.0850219726562	1758.08984375	890.9983520507812	-599.9092407226562	1034.83642578125	938.0836791992188	-316.5862426757812	990.5125732421875	706.474609375	-403.4776916503906	1067.803955078125	663.7698974609375	-614.3310546875	1094.66015625	824.4789428710938	-723.2152709960938	569.0725708007812	770.5603637695312	-699.3883666992188	696.7794799804688	850.8496704101562	-808.6226806640625	49.92512512207031	745.311767578125	-770.276123046875	310.1015319824219	814.6220092773438	-833.778564453125	113.3926849365234	526.0577392578125	-774.2911987304688	92.77413940429688	581.39599609375	-871.1932373046875	72.92209625244141	640.4757080078125	-725.0908203125	35.41937255859375	786.4421997070312	-384.8920288085938	509.3670959472656	824.544189453125	-356.7746887207031	777.2340698242188	731.7899169921875	-306.857177734375	39.4283332824707	1033.334106445312	-361.0685119628906	378.5976257324219	867.76318359375	-525.8132934570312	45.18145751953125	937.3012084960938	-499.160400390625	39.49571990966797	1006.560119628906	-401.1420288085938	44.08817672729492	935.7194213867188	-288.6039123535156	49.76850891113281	1105.764038085938	
180	1.79	-346.2218017578125	1096.58837890625	866.5386352539062	-453.1771240234375	1109.213012695312	946.7359619140625	-392.246337890625	1141.4013671875	910.15087890625	-517.059326171875	1335.636596679688	721.9390258789062	-353.6353454589844	1288.727172851562	911.6695556640625	-375.7230224609375	1581.82275390625	882.865966796875	-497.3973388671875	1472.242065429688	747.27392578125	-276.9053039550781	1396.320556640625	873.729736328125	-445.5203857421875	1566.97119140625	957.3333740234375	-555.732421875	1556.024658203125	945.4042358398438	-585.9007568359375	1430.002075195312	1020.572509765625	-597.7808227539062	1214.6357421875	1054.876708984375	-510.1932067871094	1203.293823242188	1049.884643554688	-646.7769165039062	947.1121215820312	989.79345703125	-595.532470703125	928.7483520507812	1060.33447265625	-609.9529418945312	1097.918212890625	1062.346313476562	-632.067138671875	750.7421875	980.7304077148438	-615.4262084960938	851.79150390625	1052.262084960938	-661.7462158203125	856.56689453125	997.560791015625	-281.5713195800781	1553.496948242188	719.010986328125	-224.8597106933594	1477.939697265625	689.8951416015625	-218.2197875976562	1179.98388671875	683.9254150390625	-280.7688903808594	1182.362426757812	757.7952880859375	-356.4082946777344	958.4837036132812	575.1327514648438	-285.6053466796875	929.2910766601562	607.0739135742188	-230.5241394042969	1108.287475585938	652.8967895507812	-412.904296875	772.6878662109375	555.5084838867188	-387.202880859375	856.5700073242188	540.366455078125	-319.918701171875	836.640869140625	568.3986206054688	-340.5271606445312	1741.877685546875	802.6033325195312	-534.8362426757812	1823.695556640625	737.1754150390625	-427.7693176269531	1812.193359375	664.0390625	-446.2096557617188	1756.472290039062	884.3214111328125	-608.3289794921875	1033.437377929688	928.8916015625	-321.7952575683594	989.197998046875	700.8378295898438	-408.3287353515625	1066.287231445312	657.0626831054688	-621.2131958007812	1093.215698242188	815.0108032226562	-728.5457763671875	567.6428833007812	760.7241821289062	-706.2648315429688	694.9362182617188	841.8751831054688	-815.8560180664062	49.33333206176758	724.6275024414062	-777.0630493164062	308.5815734863281	799.6524658203125	-834.5743408203125	116.8748016357422	505.6763000488281	-776.6189575195312	95.33909606933594	562.5322265625	-875.131591796875	74.08270263671875	618.3616943359375	-733.1869506835938	34.28030776977539	767.9125366210938	-389.8475341796875	508.1251831054688	819.6989135742188	-361.8482971191406	775.9457397460938	726.3709716796875	-307.3136901855469	40.76072311401367	1034.007080078125	-364.8066711425781	377.7272644042969	864.3500366210938	-526.3695068359375	44.83799362182617	937.181396484375	-499.6227416992188	39.16715621948242	1006.297668457031	-401.1910095214844	44.37966537475586	935.7275390625	-289.377197265625	52.05569076538086	1106.393920898438	
181	1.8	-354.0175170898438	1095.383666992188	860.4122924804688	-462.0859375	1107.8759765625	939.2066040039062	-400.5652770996094	1140.009033203125	903.440185546875	-522.6178588867188	1334.186645507812	713.7832641601562	-362.0685424804688	1287.352294921875	905.6009521484375	-383.4252014160156	1580.427490234375	876.6544189453125	-503.2336730957031	1470.805786132812	739.3633422851562	-284.6133422851562	1394.874389648438	868.9583129882812	-454.3837585449219	1565.633911132812	950.089111328125	-564.4361572265625	1554.675048828125	936.61083984375	-595.4142456054688	1428.694580078125	1011.496215820312	-606.864501953125	1213.310546875	1046.2490234375	-519.3663940429688	1202.438598632812	1042.174682617188	-652.480224609375	944.56201171875	983.193359375	-601.91064453125	927.527587890625	1054.481811523438	-618.0987548828125	1096.620361328125	1054.4951171875	-635.4175415039062	748.2540283203125	976.19775390625	-620.7573852539062	850.2409057617188	1046.954711914062	-666.2725830078125	853.8555297851562	991.8206176757812	-286.9496459960938	1552.009155273438	714.2162475585938	-229.8961486816406	1476.4609375	685.971923828125	-222.7479705810547	1178.542602539062	680.2582397460938	-286.3230285644531	1180.859130859375	753.205078125	-358.7971801757812	956.4102783203125	570.028564453125	-288.3904418945312	927.4752807617188	603.0167236328125	-234.5149841308594	1106.768188476562	649.2188720703125	-414.2283630371094	770.370361328125	549.9757080078125	-388.6216735839844	854.3101196289062	535.0406494140625	-321.6660461425781	834.6968383789062	564.0013427734375	-346.9989013671875	1740.458129882812	796.771240234375	-540.67822265625	1822.53173828125	729.7640380859375	-432.9433898925781	1811.172119140625	657.590576171875	-453.4391479492188	1754.8994140625	877.5680541992188	-616.7109375	1032.019775390625	919.539306640625	-327.1413269042969	987.9442749023438	695.0175170898438	-413.3208312988281	1064.830810546875	650.2444458007812	-628.1351318359375	1091.796997070312	805.4737548828125	-733.763671875	566.1951904296875	750.3751220703125	-712.9627075195312	693.0751342773438	832.4866333007812	-821.5471801757812	48.51171875	706.2977905273438	-783.0841674804688	307.056640625	785.3411254882812	-834.7276611328125	118.8632583618164	487.53125	-778.11767578125	96.72804260253906	545.7559814453125	-877.9537353515625	74.45487213134766	598.7849731445312	-739.74462890625	33.14282989501953	751.4915771484375	-394.8901672363281	506.8560180664062	814.5274658203125	-367.0223388671875	774.6885986328125	720.7344970703125	-307.7363586425781	42.24224472045898	1034.625	-368.5145568847656	376.8795776367188	860.6841430664062	-526.8877563476562	44.50631713867188	937.0618286132812	-499.9828796386719	38.98965835571289	1006.038696289062	-401.226806640625	44.68769073486328	935.6829223632812	-290.1198425292969	54.59150695800781	1106.9169921875	
182	1.81	-361.8439025878906	1094.2294921875	854.1031494140625	-470.9932861328125	1106.558959960938	931.541259765625	-408.9239501953125	1138.64013671875	896.5755615234375	-528.2755737304688	1332.822387695312	705.5591430664062	-370.5887451171875	1285.993286132812	899.3899536132812	-391.1920166015625	1579.046752929688	870.3660888671875	-509.1533203125	1469.4443359375	731.3994140625	-292.4448547363281	1393.447387695312	864.05810546875	-463.2532653808594	1564.316040039062	942.7862548828125	-573.1422729492188	1553.376831054688	927.7755126953125	-604.9195556640625	1427.415161132812	1002.345275878906	-616.0044555664062	1212.0048828125	1037.448120117188	-528.5935668945312	1201.576049804688	1034.251586914062	-658.3870849609375	942.1035766601562	976.5297241210938	-608.4847412109375	926.4056396484375	1048.511352539062	-626.3641357421875	1095.362915039062	1046.45654296875	-639.0042724609375	745.9241333007812	971.6865844726562	-626.3075561523438	848.8191528320312	1041.587524414062	-671.07861328125	851.21630859375	986.00244140625	-292.4461669921875	1550.5732421875	709.36865234375	-235.0431671142578	1475.046630859375	682.0050048828125	-227.2698822021484	1177.189086914062	676.6823120117188	-291.8924865722656	1179.441162109375	748.6387329101562	-360.9617004394531	954.3516845703125	565.0104370117188	-290.9489135742188	925.716552734375	599.0892944335938	-238.4488525390625	1105.3193359375	645.6635131835938	-415.2360534667969	768.0432739257812	544.5232543945312	-389.7600402832031	852.0399780273438	529.7997436523438	-323.2196960449219	832.7813110351562	559.7815551757812	-353.5196838378906	1739.081176757812	790.9351196289062	-546.5244140625	1821.424072265625	722.2091064453125	-438.0843505859375	1810.175170898438	651.0900268554688	-460.7707824707031	1753.384521484375	870.737060546875	-625.0671997070312	1030.605712890625	910.0140380859375	-332.6312255859375	986.7544555664062	689.0202026367188	-418.4432983398438	1063.450927734375	643.3032836914062	-635.093017578125	1090.431274414062	795.8483276367188	-738.9081420898438	564.7662963867188	739.50244140625	-719.4501953125	691.2412109375	822.5847778320312	-825.7562255859375	47.34529113769531	690.4275512695312	-788.3582763671875	305.4759216308594	771.7205810546875	-834.3130493164062	119.0688400268555	471.611083984375	-778.8195190429688	96.77433013916016	531.0791625976562	-879.712158203125	73.8001708984375	581.810302734375	-744.7944946289062	32.02469253540039	737.3053588867188	-400.0335388183594	505.5518188476562	808.9752197265625	-372.2925720214844	773.4630737304688	714.8565673828125	-308.1353759765625	43.89681243896484	1035.13671875	-372.2018127441406	376.0577697753906	856.7294311523438	-527.3656005859375	44.18608856201172	936.93408203125	-500.2330017089844	38.98903656005859	1005.779174804688	-401.2773742675781	44.99483871459961	935.5714111328125	-290.8551940917969	57.42412185668945	1107.303344726562	
